<svg width="188" height="142" viewBox="0 0 188 142" fill="none" xmlns="http://www.w3.org/2000/svg">
<rect y="141.296" width="140.714" height="187.054" rx="20" transform="rotate(-90 0 141.296)" fill="url(#paint0_linear_2535_741)"/>
<rect x="36" y="119" width="80.8118" height="6.78141" rx="3.39071" transform="rotate(-90 36 119)" fill="url(#paint1_linear_2535_741)"/>
<rect x="57.4695" y="119" width="45.7745" height="6.78141" rx="3.39071" transform="rotate(-90 57.4695 119)" fill="url(#paint2_linear_2535_741)"/>
<rect x="78.9502" y="119" width="96.07" height="6.78141" rx="3.39071" transform="rotate(-90 78.9502 119)" fill="url(#paint3_linear_2535_741)"/>
<rect x="100.424" y="119" width="76.856" height="6.78141" rx="3.39071" transform="rotate(-90 100.424 119)" fill="url(#paint4_linear_2535_741)"/>
<rect x="121.898" y="119" width="76.856" height="6.78141" rx="3.39071" transform="rotate(-90 121.898 119)" fill="url(#paint5_linear_2535_741)"/>
<rect x="143.369" y="119" width="51.9908" height="6.78141" rx="3.39071" transform="rotate(-90 143.369 119)" fill="url(#paint6_linear_2535_741)"/>
<defs>
<linearGradient id="paint0_linear_2535_741" x1="3.10814" y1="143.839" x2="151.475" y2="369.75" gradientUnits="userSpaceOnUse">
<stop stop-color="#FFC9AE"/>
<stop offset="0.252803" stop-color="#FFF5F1"/>
<stop offset="0.634" stop-color="#FEE0D2"/>
<stop offset="1" stop-color="#FB905C"/>
</linearGradient>
<linearGradient id="paint1_linear_2535_741" x1="116.812" y1="122.391" x2="36" y2="122.391" gradientUnits="userSpaceOnUse">
<stop stop-color="#FE915C"/>
<stop offset="1" stop-color="#F8580B" stop-opacity="0.08"/>
</linearGradient>
<linearGradient id="paint2_linear_2535_741" x1="102.818" y1="119.419" x2="58.121" y2="119.419" gradientUnits="userSpaceOnUse">
<stop stop-color="#F85303"/>
<stop offset="1" stop-color="white" stop-opacity="0.5"/>
</linearGradient>
<linearGradient id="paint3_linear_2535_741" x1="175.02" y1="122.391" x2="78.9502" y2="122.391" gradientUnits="userSpaceOnUse">
<stop stop-color="#FE915C"/>
<stop offset="1" stop-color="#FE915C" stop-opacity="0.22"/>
</linearGradient>
<linearGradient id="paint4_linear_2535_741" x1="177.227" y1="119.506" x2="103.559" y2="119.506" gradientUnits="userSpaceOnUse">
<stop stop-color="#F85303"/>
<stop offset="1" stop-color="white" stop-opacity="0.5"/>
</linearGradient>
<linearGradient id="paint5_linear_2535_741" x1="198.701" y1="119.553" x2="122.55" y2="119.553" gradientUnits="userSpaceOnUse">
<stop stop-color="#F85303"/>
<stop offset="0.338892" stop-color="#F7AF8C"/>
<stop offset="1" stop-color="white" stop-opacity="0.28"/>
</linearGradient>
<linearGradient id="paint6_linear_2535_741" x1="195.34" y1="122.914" x2="144.021" y2="122.914" gradientUnits="userSpaceOnUse">
<stop stop-color="#F85303"/>
<stop offset="1" stop-color="#FFF9F7"/>
</linearGradient>
</defs>
</svg>
