<svg width="168" height="138" viewBox="0 0 168 138" fill="none" xmlns="http://www.w3.org/2000/svg">
<path d="M113.185 39.7968C101.245 39.7968 89.1163 39.3111 77.7717 36.1615C66.427 33.012 56.4612 27.0732 47.2789 20.1317C41.3089 15.6032 35.8559 12.0149 28.1308 12.5633C20.5542 12.9666 13.3082 15.7958 7.46283 20.6331C-2.45593 29.2669 -0.88899 45.2341 3.02837 56.4535C8.95143 73.3765 26.987 85.1129 42.3117 92.7753C60.0182 101.613 79.464 106.752 98.9724 109.714C116.209 112.315 138.036 114.195 152.844 103.023C166.461 92.7753 170.19 69.3494 166.853 53.5389C166.045 48.8661 163.56 44.6485 159.864 41.6772C150.306 34.6886 136.046 39.3581 125.297 39.5931C121.333 39.6871 117.259 39.7812 113.185 39.7968Z" fill="#D7EFFF"/>
<path d="M16.1431 56.2534L145.679 33.6225L154.295 82.9394C154.549 84.3927 154.215 85.8873 153.367 87.0945C152.519 88.3017 151.226 89.1225 149.773 89.3764L31.1962 110.093C29.7429 110.347 28.2482 110.013 27.0411 109.165C25.8339 108.317 25.0131 107.024 24.7592 105.57L16.1431 56.2534Z" fill="white" stroke="#0867A3" stroke-linecap="round" stroke-linejoin="round"/>
<path d="M145.085 33.7256L16.7679 56.1436L18.6232 66.7633L146.94 44.3454L145.085 33.7256Z" fill="#0867A3"/>
<path d="M69.3466 46.9563L92.5001 42.9112L97.5106 71.5906C97.6616 72.4544 97.4631 73.3428 96.9591 74.0603C96.455 74.7778 95.6865 75.2657 94.8227 75.4166L78.1677 78.3263C77.3039 78.4773 76.4155 78.2788 75.698 77.7748C74.9805 77.2707 74.4926 76.5022 74.3417 75.6384L69.3312 46.959L69.3466 46.9563Z" fill="white" stroke="#0867A3" stroke-linecap="round" stroke-linejoin="round"/>
<path d="M27.6685 25.3673L124.419 8.46417C128.775 7.70317 133.255 8.70368 136.873 11.2456C140.491 13.7875 142.951 17.6626 143.712 22.0184L145.74 33.626L16.1577 56.265L14.1271 44.642C13.3711 40.2908 14.3724 35.8175 16.9112 32.2038C19.45 28.5901 23.3188 26.1314 27.6685 25.3673Z" fill="white" stroke="#0867A3" stroke-linecap="round" stroke-linejoin="round"/>
<path d="M87.7844 55.3725C87.9484 56.2968 87.8537 57.2483 87.5108 58.1221C87.1679 58.9959 86.5902 59.758 85.8414 60.3241L86.8599 65.8241C86.9159 66.1311 86.9098 66.4463 86.8418 66.751C86.7739 67.0556 86.6455 67.3435 86.4644 67.5977C86.2832 67.8519 86.053 68.0672 85.7872 68.2309C85.5214 68.3945 85.2255 68.5032 84.9169 68.5505C84.6102 68.607 84.2954 68.6023 83.9905 68.5367C83.6857 68.4711 83.3968 68.3458 83.1405 68.1682C82.8842 67.9905 82.6656 67.7639 82.4971 67.5015C82.3287 67.239 82.2138 66.9459 82.1591 66.6389L81.2033 61.1389C80.3129 60.8481 79.5179 60.3216 78.9026 59.6153C78.2874 58.909 77.8749 58.0494 77.709 57.1275C77.4763 55.7956 77.7822 54.4257 78.5594 53.3194C79.3367 52.213 80.5216 51.4607 81.8535 51.228C83.1855 50.9952 84.5553 51.3011 85.6617 52.0784C86.7681 52.8557 87.5204 54.0406 87.7531 55.3725H87.7844Z" fill="#0867A3"/>
<path d="M74.6534 13.7389C75.4236 13.7389 76.048 13.1145 76.048 12.3443C76.048 11.5741 75.4236 10.9497 74.6534 10.9497C73.8832 10.9497 73.2588 11.5741 73.2588 12.3443C73.2588 13.1145 73.8832 13.7389 74.6534 13.7389Z" fill="#0867A3"/>
<path d="M8.29323 12.2359C9.06344 12.2359 9.68781 11.6116 9.68781 10.8414C9.68781 10.0712 9.06344 9.44678 8.29323 9.44678C7.52303 9.44678 6.89865 10.0712 6.89865 10.8414C6.89865 11.6116 7.52303 12.2359 8.29323 12.2359Z" fill="#0867A3"/>
<path d="M10.299 94.6564C11.0692 94.6564 11.6936 94.032 11.6936 93.2618C11.6936 92.4916 11.0692 91.8672 10.299 91.8672C9.52882 91.8672 8.90445 92.4916 8.90445 93.2618C8.90445 94.032 9.52882 94.6564 10.299 94.6564Z" fill="#0867A3"/>
<path d="M57.4796 1V7.14243" stroke="#0867A3" stroke-linecap="round" stroke-linejoin="round"/>
<path d="M54.4086 4.0708H60.5353" stroke="#0867A3" stroke-linecap="round" stroke-linejoin="round"/>
<path d="M65.8627 112.316V118.443" stroke="#0867A3" stroke-linecap="round" stroke-linejoin="round"/>
<path d="M62.8073 115.37H68.934" stroke="#0867A3" stroke-linecap="round" stroke-linejoin="round"/>
<path d="M160.537 17.2188V23.3612" stroke="#0867A3" stroke-linecap="round" stroke-linejoin="round"/>
<path d="M157.482 20.2891H163.609" stroke="#0867A3" stroke-linecap="round" stroke-linejoin="round"/>
<path d="M84.0081 137.419C112.887 137.419 136.297 135.96 136.297 134.16C136.297 132.36 112.887 130.901 84.0081 130.901C55.1297 130.901 31.7191 132.36 31.7191 134.16C31.7191 135.96 55.1297 137.419 84.0081 137.419Z" fill="#D7EFFF"/>
</svg>
