<svg width="48" height="47" viewBox="0 0 48 47" fill="none" xmlns="http://www.w3.org/2000/svg">
<g clip-path="url(#clip0_1958_1686)">
<path d="M20.087 29.0318C17.587 29.0318 -1.1209 25.0238 -5.91296 28.0318C-6.57962 34.6984 -3.71296 48.5318 13.087 50.5318H42.087C39.5715 45.4375 31.587 37.0318 29.087 35.0318C26.587 33.0318 27.087 28.5318 29.087 26.0318C31.087 23.5318 35.587 24.0318 38.587 22.5318C41.587 21.0318 43.587 18.1318 43.587 14.5318C43.587 10.0318 40.087 4.53178 34.087 5.03178C28.087 5.53178 25.087 11.5318 25.587 14.5318C26.087 17.5318 29.087 22.0318 25.587 26.0318C22.087 30.0318 22.587 29.0318 20.087 29.0318Z" fill="white" fill-opacity="0.26"/>
<circle cx="45.25" cy="32.25" r="2.25" fill="white" fill-opacity="0.26"/>
<circle cx="6.5" cy="5.5" r="5.5" fill="white" fill-opacity="0.26"/>
</g>
<defs>
<clipPath id="clip0_1958_1686">
<rect width="53.5" height="50.5318" fill="white" transform="translate(-6)"/>
</clipPath>
</defs>
</svg>
