<svg width="226" height="180" viewBox="0 0 226 180" fill="none" xmlns="http://www.w3.org/2000/svg">
<path d="M132.352 65.6716C118.388 65.7549 104.208 65.105 90.9436 61.4224C77.6796 57.7398 65.9486 50.7912 55.2841 42.6762C48.3021 37.3939 41.9534 33.1948 32.8886 33.828C24.0254 34.2938 15.5477 37.6008 8.71007 43.2594C-2.82095 53.3574 -1.07129 72.0203 3.52778 85.151C10.4597 104.93 31.5555 118.661 49.4686 127.609C70.1811 137.957 92.9265 143.973 115.739 147.422C135.735 150.455 161.413 152.671 178.726 139.607C194.639 127.626 199.005 100.231 195.106 81.735C194.157 76.272 191.248 71.3426 186.924 67.8711C175.743 59.7061 159.08 65.155 146.516 65.4383C141.933 65.5383 137.118 65.6549 132.352 65.6716Z" fill="#E0F3FF"/>
<path d="M64.2658 1V8.16523" stroke="#02629F" stroke-width="0.85" stroke-linecap="round" stroke-linejoin="round"/>
<path d="M60.683 4.58154H67.8482" stroke="#02629F" stroke-width="0.85" stroke-linecap="round" stroke-linejoin="round"/>
<path d="M200.205 143.821V150.986" stroke="#02629F" stroke-width="0.85" stroke-linecap="round" stroke-linejoin="round"/>
<path d="M196.622 147.405H203.788" stroke="#02629F" stroke-width="0.85" stroke-linecap="round" stroke-linejoin="round"/>
<path d="M10.1265 112.878C11.0284 112.878 11.7595 112.147 11.7595 111.245C11.7595 110.343 11.0284 109.612 10.1265 109.612C9.22459 109.612 8.49347 110.343 8.49347 111.245C8.49347 112.147 9.22459 112.878 10.1265 112.878Z" fill="#02629F"/>
<path d="M149.165 8.39785C150.067 8.39785 150.798 7.66673 150.798 6.76484C150.798 5.86296 150.067 5.13184 149.165 5.13184C148.263 5.13184 147.532 5.86296 147.532 6.76484C147.532 7.66673 148.263 8.39785 149.165 8.39785Z" fill="#02629F"/>
<path d="M103.908 179.814C137.682 179.814 165.062 178.113 165.062 176.015C165.062 173.917 137.682 172.216 103.908 172.216C70.1329 172.216 42.7532 173.917 42.7532 176.015C42.7532 178.113 70.1329 179.814 103.908 179.814Z" fill="#E0F3FF"/>
<path d="M56.8004 20.4639H145.616C147.826 20.4639 149.945 21.3417 151.507 22.9042C153.07 24.4666 153.948 26.5858 153.948 28.7955V134.458C153.948 136.667 153.07 138.787 151.507 140.349C149.945 141.912 147.826 142.789 145.616 142.789H45.4194C43.2097 142.789 41.0905 141.912 39.528 140.349C37.9655 138.787 37.0877 136.667 37.0877 134.458V40.3765L56.8004 20.4639Z" fill="white" stroke="#02629F" stroke-linecap="round" stroke-linejoin="round"/>
<path d="M153.548 71.9541H61.9661V143.806H153.548V71.9541Z" fill="#0867A3"/>
<path d="M37.0877 40.3765H53.2345C54.1817 40.3721 55.0887 39.9927 55.757 39.3213C56.4253 38.6499 56.8004 37.7412 56.8004 36.7939V20.4639L37.0877 40.3765Z" fill="white" stroke="#02629F" stroke-linecap="round" stroke-linejoin="round"/>
<path d="M153.098 49.0054H62.5161C58.9914 49.0054 56.1341 51.8627 56.1341 55.3874V74.7669C56.1341 78.2916 58.9914 81.1489 62.5161 81.1489H153.098C156.623 81.1489 159.48 78.2916 159.48 74.7669V55.3874C159.48 51.8627 156.623 49.0054 153.098 49.0054Z" fill="white" stroke="#02629F" stroke-linecap="round" stroke-linejoin="round"/>
<path d="M73.7303 70.6858C76.8041 70.6858 79.2959 68.194 79.2959 65.1202C79.2959 62.0465 76.8041 59.5547 73.7303 59.5547C70.6565 59.5547 68.1648 62.0465 68.1648 65.1202C68.1648 68.194 70.6565 70.6858 73.7303 70.6858Z" fill="#0867A3"/>
<path d="M91.2269 70.6858C94.3007 70.6858 96.7925 68.194 96.7925 65.1202C96.7925 62.0465 94.3007 59.5547 91.2269 59.5547C88.1532 59.5547 85.6614 62.0465 85.6614 65.1202C85.6614 68.194 88.1532 70.6858 91.2269 70.6858Z" fill="#0867A3"/>
<path d="M108.707 70.6858C111.78 70.6858 114.272 68.194 114.272 65.1202C114.272 62.0465 111.78 59.5547 108.707 59.5547C105.633 59.5547 103.141 62.0465 103.141 65.1202C103.141 68.194 105.633 70.6858 108.707 70.6858Z" fill="#0867A3"/>
<path d="M153.098 84.6333H62.5161C58.9914 84.6333 56.1341 87.4906 56.1341 91.0154V110.395C56.1341 113.92 58.9914 116.777 62.5161 116.777H153.098C156.623 116.777 159.48 113.92 159.48 110.395V91.0154C159.48 87.4906 156.623 84.6333 153.098 84.6333Z" fill="white" stroke="#02629F" stroke-linecap="round" stroke-linejoin="round"/>
<path d="M73.7303 106.328C76.8041 106.328 79.2959 103.837 79.2959 100.763C79.2959 97.689 76.8041 95.1973 73.7303 95.1973C70.6565 95.1973 68.1648 97.689 68.1648 100.763C68.1648 103.837 70.6565 106.328 73.7303 106.328Z" fill="#0867A3"/>
<path d="M91.2269 106.328C94.3007 106.328 96.7925 103.837 96.7925 100.763C96.7925 97.689 94.3007 95.1973 91.2269 95.1973C88.1532 95.1973 85.6614 97.689 85.6614 100.763C85.6614 103.837 88.1532 106.328 91.2269 106.328Z" fill="#0867A3"/>
<path d="M108.707 106.328C111.78 106.328 114.272 103.837 114.272 100.763C114.272 97.689 111.78 95.1973 108.707 95.1973C105.633 95.1973 103.141 97.689 103.141 100.763C103.141 103.837 105.633 106.328 108.707 106.328Z" fill="#0867A3"/>
<path d="M153.098 120.275H62.5161C58.9914 120.275 56.1341 123.133 56.1341 126.657V146.037C56.1341 149.562 58.9914 152.419 62.5161 152.419H153.098C156.623 152.419 159.48 149.562 159.48 146.037V126.657C159.48 123.133 156.623 120.275 153.098 120.275Z" fill="white" stroke="#02629F" stroke-linecap="round" stroke-linejoin="round"/>
<path d="M73.7303 141.955C76.8041 141.955 79.2959 139.463 79.2959 136.389C79.2959 133.316 76.8041 130.824 73.7303 130.824C70.6565 130.824 68.1648 133.316 68.1648 136.389C68.1648 139.463 70.6565 141.955 73.7303 141.955Z" fill="#0867A3"/>
<path d="M91.2269 141.955C94.3007 141.955 96.7925 139.463 96.7925 136.389C96.7925 133.316 94.3007 130.824 91.2269 130.824C88.1532 130.824 85.6614 133.316 85.6614 136.389C85.6614 139.463 88.1532 141.955 91.2269 141.955Z" fill="#0867A3"/>
<path d="M108.707 141.955C111.78 141.955 114.272 139.463 114.272 136.389C114.272 133.316 111.78 130.824 108.707 130.824C105.633 130.824 103.141 133.316 103.141 136.389C103.141 139.463 105.633 141.955 108.707 141.955Z" fill="#0867A3"/>
<path d="M161.296 89.5984C180.374 89.5984 195.839 74.1329 195.839 55.0553C195.839 35.9777 180.374 20.5122 161.296 20.5122C142.219 20.5122 126.753 35.9777 126.753 55.0553C126.753 74.1329 142.219 89.5984 161.296 89.5984Z" fill="white" stroke="#02629F" stroke-linecap="round" stroke-linejoin="round"/>
<path d="M185.825 80.1187L195.023 89.3168" stroke="#02629F" stroke-linecap="round" stroke-linejoin="round"/>
<path d="M193.995 84.8522L191.14 87.8394C189.855 89.1831 189.903 91.3138 191.247 92.5984L216.059 116.318C217.403 117.603 219.534 117.555 220.818 116.211L223.674 113.224C224.959 111.88 224.911 109.749 223.567 108.465L198.754 84.7451C197.41 83.4605 195.28 83.5084 193.995 84.8522Z" fill="white" stroke="#02629F" stroke-linecap="round" stroke-linejoin="round"/>
</svg>
