<svg width="193" height="180" viewBox="0 0 193 180" fill="none" xmlns="http://www.w3.org/2000/svg">
<path d="M168.119 43.6304V50.6837" stroke="#0867A3" stroke-linecap="round" stroke-linejoin="round"/>
<path d="M164.601 47.1479H171.638" stroke="#0867A3" stroke-linecap="round" stroke-linejoin="round"/>
<path d="M23.8458 16.4136V23.4505" stroke="#0867A3" stroke-linecap="round" stroke-linejoin="round"/>
<path d="M20.3109 19.9336H27.3642" stroke="#0867A3" stroke-linecap="round" stroke-linejoin="round"/>
<path d="M78.6029 3.20753C79.4886 3.20753 80.2067 2.4895 80.2067 1.60376C80.2067 0.718029 79.4886 0 78.6029 0C77.7172 0 76.9992 0.718029 76.9992 1.60376C76.9992 2.4895 77.7172 3.20753 78.6029 3.20753Z" fill="#02629F"/>
<path d="M130.022 66.9667C116.324 66.9667 102.381 66.4103 89.3382 62.7773C76.5408 59.2261 64.7908 52.3365 54.3172 44.3667C47.4603 39.179 41.2253 35.0551 32.3228 35.6769C23.606 36.1541 15.2744 39.4248 8.56085 45.005C-2.7637 54.8239 -1.06175 73.2018 3.47134 86.1137C10.2792 105.555 30.9972 119.024 48.6059 127.828C68.9475 137.991 91.302 143.882 113.706 147.286C133.344 150.264 158.578 152.441 175.598 139.611C191.226 127.828 195.514 100.924 191.685 82.7589C190.756 77.3877 187.899 72.5403 183.649 69.1269C172.669 61.1081 156.287 66.4594 143.948 66.7376C139.366 66.8358 134.702 66.9504 130.022 66.9667Z" fill="#E8F6FF"/>
<path d="M96.5061 179.114C129.685 179.114 156.582 177.436 156.582 175.366C156.582 173.297 129.685 171.619 96.5061 171.619C63.3272 171.619 36.4304 173.297 36.4304 175.366C36.4304 177.436 63.3272 179.114 96.5061 179.114Z" fill="#E8F6FF"/>
<path d="M122.024 5.43459L42.0394 16.2489C39.4778 16.5952 37.682 18.9526 38.0284 21.5141L53.5394 136.236C53.8857 138.798 56.2431 140.593 58.8047 140.247L138.789 129.433C141.35 129.086 143.146 126.729 142.8 124.167L127.289 9.44565C126.943 6.88406 124.585 5.08825 122.024 5.43459Z" fill="#02629F" fill-opacity="0.65"/>
<path d="M148.596 22.272H67.8838C65.2989 22.272 63.2034 24.3674 63.2034 26.9524V142.718C63.2034 145.303 65.2989 147.398 67.8838 147.398H148.596C151.181 147.398 153.276 145.303 153.276 142.718V26.9524C153.276 24.3674 151.181 22.272 148.596 22.272Z" fill="white" stroke="#0867A3" stroke-linecap="round" stroke-linejoin="round"/>
<path d="M127.632 112.146H88.831C87.3759 112.146 86.1963 113.326 86.1963 114.781V114.798C86.1963 116.253 87.3759 117.432 88.831 117.432H127.632C129.087 117.432 130.267 116.253 130.267 114.798V114.781C130.267 113.326 129.087 112.146 127.632 112.146Z" fill="#02629F" fill-opacity="0.65"/>
<path d="M126.241 133.75H89.011C88.5681 133.75 88.2091 134.109 88.2091 134.552V134.798C88.2091 135.241 88.5681 135.6 89.011 135.6H126.241C126.684 135.6 127.043 135.241 127.043 134.798V134.552C127.043 134.109 126.684 133.75 126.241 133.75Z" fill="#02629F" fill-opacity="0.65"/>
<path d="M135.733 125.094H80.894C80.3065 125.094 79.8303 125.57 79.8303 126.157C79.8303 126.745 80.3065 127.221 80.894 127.221H135.733C136.32 127.221 136.797 126.745 136.797 126.157C136.797 125.57 136.32 125.094 135.733 125.094Z" fill="#02629F" fill-opacity="0.65"/>
<path d="M145.765 26.0854H70.715C68.8531 26.0854 67.3438 27.5948 67.3438 29.4566V94.54C67.3438 96.4019 68.8531 97.9112 70.715 97.9112H145.765C147.626 97.9112 149.136 96.4019 149.136 94.54V29.4566C149.136 27.5948 147.626 26.0854 145.765 26.0854Z" fill="white" stroke="#0867A3" stroke-linecap="round" stroke-linejoin="round"/>
<path d="M118.255 68.9479C118.79 68.9606 119.308 69.1357 119.741 69.4499C120.173 69.7641 120.5 70.2025 120.678 70.7068C120.855 71.2112 120.875 71.7577 120.735 72.2737C120.594 72.7897 120.3 73.2507 119.892 73.5955C116.478 76.4229 112.175 77.9523 107.743 77.9133C103.311 77.8744 99.0349 76.2697 95.6716 73.3828C95.2663 73.0392 94.9751 72.5804 94.8368 72.0673C94.6985 71.5543 94.7195 71.0113 94.8971 70.5105C95.0747 70.0097 95.4004 69.5748 95.831 69.2636C96.2617 68.9523 96.7768 68.7794 97.308 68.7679L118.255 68.9479Z" fill="white" stroke="#0867A3" stroke-linecap="round" stroke-linejoin="round"/>
<path d="M131.625 61.3515L122.085 55.8529L131.625 50.3379" stroke="#0867A3" stroke-width="0.71" stroke-linecap="round" stroke-linejoin="round"/>
<path d="M84.0687 61.3515L93.6095 55.8529L84.0687 50.3379" stroke="#0867A3" stroke-width="0.71" stroke-linecap="round" stroke-linejoin="round"/>
<path d="M31.75 96.2578V103.311" stroke="#0867A3" stroke-linecap="round" stroke-linejoin="round"/>
<path d="M28.2315 99.7778H35.2848" stroke="#0867A3" stroke-linecap="round" stroke-linejoin="round"/>
<path d="M165.141 101.25C166.027 101.25 166.745 100.532 166.745 99.6467C166.745 98.761 166.027 98.043 165.141 98.043C164.255 98.043 163.537 98.761 163.537 99.6467C163.537 100.532 164.255 101.25 165.141 101.25Z" fill="#02629F"/>
<ellipse cx="49.0046" cy="133.005" rx="22.0046" ry="22.0046" fill="url(#paint0_linear_2389_6632)"/>
<rect width="24.5" height="24.5" transform="translate(36.5278 120.983)" fill="url(#paint1_linear_2389_6632)"/>
<path fill-rule="evenodd" clip-rule="evenodd" d="M45.6623 138.511L52.8746 126.019C51.8124 125.406 50.2809 126.51 47.218 128.717L42.3663 132.213C40.5065 133.553 39.5766 134.223 39.3095 134.829C38.9237 135.704 39.0972 136.691 39.7388 137.271C40.1829 137.673 41.2479 137.772 43.3779 137.968C44.1659 138.041 44.5599 138.078 44.9212 138.189C45.181 138.268 45.4293 138.377 45.6623 138.511Z" fill="white"/>
<path opacity="0.5" d="M52.7649 138.216L53.3667 132.266L53.3667 132.266C53.7467 128.51 53.9367 126.632 52.8745 126.019L45.6623 138.511C45.8953 138.646 46.1132 138.806 46.3122 138.992C46.5889 139.249 46.8174 139.572 47.2745 140.218C48.51 141.964 49.1278 142.837 49.6979 143.021C50.5215 143.286 51.4629 142.943 52.0278 142.171C52.4188 141.637 52.5341 140.497 52.7649 138.216Z" fill="#FFE8E8"/>
<defs>
<linearGradient id="paint0_linear_2389_6632" x1="49.0046" y1="111" x2="49.0046" y2="155.009" gradientUnits="userSpaceOnUse">
<stop stop-color="#75FFE4"/>
<stop offset="1" stop-color="#58C7B1"/>
</linearGradient>
<linearGradient id="paint1_linear_2389_6632" x1="12.25" y1="0" x2="12.25" y2="24.5" gradientUnits="userSpaceOnUse">
<stop stop-color="#75FFE4"/>
<stop offset="1" stop-color="#58C7B1"/>
</linearGradient>
</defs>
</svg>
