<svg width="40" height="40" viewBox="0 0 40 40" fill="none" xmlns="http://www.w3.org/2000/svg">
<path d="M10.3267 29.1417C11.7433 28.1217 13.2467 27.3156 14.8367 26.7233C16.4256 26.13 18.1467 25.8333 20 25.8333C21.8533 25.8333 23.5744 26.13 25.1633 26.7233C26.7522 27.3167 28.2556 28.1222 29.6733 29.14C30.7733 28.0011 31.6583 26.6567 32.3283 25.1067C32.9983 23.5544 33.3333 21.8522 33.3333 20C33.3333 16.3056 32.035 13.1594 29.4383 10.5617C26.8417 7.96389 23.6956 6.66556 20 6.66667C16.3044 6.66778 13.1583 7.96667 10.5617 10.5633C7.965 13.16 6.66667 16.3056 6.66667 20C6.66667 21.8522 7.00167 23.5544 7.67167 25.1067C8.34167 26.6578 9.22667 28.0022 10.3267 29.14M20.0017 20.8333C18.5972 20.8333 17.4122 20.3511 16.4467 19.3867C15.4811 18.4222 14.9989 17.2383 15 15.835C15.0011 14.4317 15.4833 13.2467 16.4467 12.28C17.41 11.3133 18.5944 10.8311 20 10.8333C21.4056 10.8356 22.59 11.3178 23.5533 12.28C24.5167 13.2422 24.9989 14.4267 25 15.8333C25.0011 17.24 24.5189 18.4244 23.5533 19.3867C22.5878 20.3489 21.4039 20.8311 20.0017 20.8333ZM20 35C17.9078 35 15.9494 34.6106 14.125 33.8317C12.3006 33.0528 10.7128 31.9883 9.36167 30.6383C8.01056 29.2883 6.94611 27.7006 6.16834 25.875C5.39056 24.0494 5.00111 22.0911 5 20C4.99889 17.9089 5.38834 15.9506 6.16834 14.125C6.94834 12.2994 8.01278 10.7117 9.36167 9.36167C10.7128 8.01167 12.3006 6.94722 14.125 6.16833C15.9494 5.38944 17.9078 5 20 5C22.0922 5 24.0506 5.38944 25.875 6.16833C27.6994 6.94722 29.2872 8.01167 30.6383 9.36167C31.9894 10.7117 33.0539 12.2994 33.8317 14.125C34.6094 15.9506 34.9989 17.9089 35 20C35.0011 22.0911 34.6117 24.0494 33.8317 25.875C33.0517 27.7006 31.9872 29.2883 30.6383 30.6383C29.2872 31.9883 27.6994 33.0528 25.875 33.8317C24.0506 34.6106 22.0922 35 20 35ZM20 33.3333C21.5367 33.3333 23.0483 33.0644 24.535 32.5267C26.0217 31.99 27.3067 31.2544 28.39 30.32C27.3078 29.45 26.055 28.7628 24.6317 28.2583C23.2083 27.7539 21.6644 27.5011 20 27.5C18.3356 27.4989 16.7861 27.7461 15.3517 28.2417C13.9172 28.7372 12.6694 29.43 11.6083 30.32C12.6917 31.2533 13.9772 31.9889 15.465 32.5267C16.9528 33.0644 18.4644 33.3333 20 33.3333ZM20 19.1667C20.9356 19.1667 21.725 18.845 22.3683 18.2017C23.0117 17.5583 23.3333 16.7689 23.3333 15.8333C23.3333 14.8978 23.0117 14.1083 22.3683 13.465C21.725 12.8217 20.9356 12.5 20 12.5C19.0644 12.5 18.275 12.8217 17.6317 13.465C16.9883 14.1083 16.6667 14.8978 16.6667 15.8333C16.6667 16.7689 16.9883 17.5583 17.6317 18.2017C18.275 18.845 19.0644 19.1667 20 19.1667Z" fill="url(#paint0_linear_2407_6864)"/>
<defs>
<linearGradient id="paint0_linear_2407_6864" x1="20" y1="13" x2="20" y2="58.5" gradientUnits="userSpaceOnUse">
<stop stop-color="white"/>
<stop offset="1" stop-color="#FF9213"/>
</linearGradient>
</defs>
</svg>
