<svg width="40" height="40" viewBox="0 0 40 40" fill="none" xmlns="http://www.w3.org/2000/svg">
<path d="M7.33333 34.2183C6.39333 34.2183 5.60278 33.8978 4.96167 33.2567C4.32056 32.6156 4 31.825 4 30.885V28.8983C4 28.5106 4.12778 28.1894 4.38333 27.935C4.63889 27.6806 4.96 27.5528 5.34667 27.5517H9V5.50667C9 5.35444 9.05667 5.25444 9.17 5.20667C9.28333 5.15889 9.39889 5.17222 9.51667 5.24667L10.7567 6.07C10.8811 6.15111 11.0006 6.19167 11.115 6.19167C11.2294 6.19167 11.3494 6.15111 11.475 6.07L12.9367 5.12167C13.06 5.04056 13.1794 5 13.295 5C13.4106 5 13.53 5.04056 13.6533 5.12167L15.115 6.07167C15.2394 6.15167 15.3594 6.19167 15.475 6.19167C15.5906 6.19167 15.71 6.15111 15.8333 6.07L17.295 5.12167C17.4194 5.04056 17.5389 5 17.6533 5C17.7689 5 17.8889 5.04056 18.0133 5.12167L19.475 6.07167C19.5983 6.15167 19.7178 6.19167 19.8333 6.19167C19.9489 6.19167 20.0689 6.15111 20.1933 6.07L21.6533 5.12167C21.7778 5.04056 21.8978 5 22.0133 5C22.1289 5 22.2483 5.04056 22.3717 5.12167L23.8333 6.07167C23.9578 6.15278 24.0778 6.19333 24.1933 6.19333C24.3078 6.19333 24.4272 6.15278 24.5517 6.07167L26.0133 5.12167C26.1367 5.04056 26.2561 5 26.3717 5C26.4872 5 26.6072 5.04056 26.7317 5.12167L28.1933 6.07167C28.3167 6.15278 28.4361 6.19333 28.5517 6.19333C28.6672 6.19333 28.7867 6.15278 28.91 6.07167L30.15 5.24667C30.2678 5.17222 30.3833 5.15889 30.4967 5.20667C30.61 5.25444 30.6667 5.35444 30.6667 5.50667V30.885C30.6667 31.825 30.3461 32.6156 29.705 33.2567C29.0639 33.8978 28.2733 34.2183 27.3333 34.2183H7.33333ZM27.3333 32.5517C27.8056 32.5517 28.2017 32.3917 28.5217 32.0717C28.8417 31.7517 29.0011 31.3561 29 30.885V7.55167H10.6667V27.5517H24.32C24.7078 27.5517 25.0289 27.6794 25.2833 27.935C25.5378 28.1906 25.6656 28.5117 25.6667 28.8983V30.885C25.6667 31.3572 25.8267 31.7533 26.1467 32.0733C26.4667 32.3933 26.8622 32.5528 27.3333 32.5517ZM13.8083 11.7183H21.0517C21.2883 11.7183 21.4867 11.7978 21.6467 11.9567C21.8067 12.1156 21.8856 12.3139 21.8833 12.5517C21.8811 12.7894 21.8017 12.9878 21.645 13.1467C21.4883 13.3056 21.29 13.385 21.05 13.385H13.8083C13.5706 13.385 13.3722 13.3056 13.2133 13.1467C13.0533 12.9878 12.9733 12.7894 12.9733 12.5517C12.9733 12.3139 13.0533 12.1156 13.2133 11.9567C13.3733 11.7978 13.5717 11.7183 13.8083 11.7183ZM13.8083 16.7183H21.0517C21.2883 16.7183 21.4867 16.7978 21.6467 16.9567C21.8067 17.1156 21.8861 17.3139 21.885 17.5517C21.8839 17.7894 21.8044 17.9878 21.6467 18.1467C21.4889 18.3056 21.2906 18.385 21.0517 18.385H13.8083C13.5706 18.385 13.3722 18.3056 13.2133 18.1467C13.0533 17.9878 12.9733 17.7894 12.9733 17.5517C12.9733 17.3139 13.0533 17.1156 13.2133 16.9567C13.3733 16.7978 13.5717 16.7183 13.8083 16.7183ZM25.475 13.835C25.1306 13.835 24.8306 13.7072 24.575 13.4517C24.3194 13.1961 24.1917 12.8961 24.1917 12.5517C24.1917 12.2072 24.3194 11.9072 24.575 11.6517C24.8306 11.3961 25.1306 11.2683 25.475 11.2683C25.8194 11.2683 26.1189 11.3961 26.3733 11.6517C26.6278 11.9072 26.7556 12.2072 26.7567 12.5517C26.7578 12.8961 26.63 13.1961 26.3733 13.4517C26.1167 13.7072 25.8183 13.835 25.475 13.835ZM25.4733 18.835C25.13 18.835 24.8306 18.7072 24.575 18.4517C24.3194 18.1961 24.1917 17.8961 24.1917 17.5517C24.1917 17.2072 24.3194 16.9072 24.575 16.6517C24.8306 16.3961 25.1306 16.2683 25.475 16.2683C25.8194 16.2683 26.1189 16.3961 26.3733 16.6517C26.6278 16.9072 26.7556 17.2072 26.7567 17.5517C26.7578 17.8961 26.63 18.1961 26.3733 18.4517C26.1167 18.7072 25.8167 18.835 25.4733 18.835Z" fill="url(#paint0_linear_2407_6903)"/>
<defs>
<linearGradient id="paint0_linear_2407_6903" x1="17.3333" y1="19.2183" x2="17.3333" y2="52.2183" gradientUnits="userSpaceOnUse">
<stop stop-color="white"/>
<stop offset="1" stop-color="#FFC43F"/>
</linearGradient>
</defs>
</svg>
