<svg width="23" height="23" viewBox="0 0 23 23" fill="none" xmlns="http://www.w3.org/2000/svg">
<path d="M10.4664 11.5707L10.5371 11.5L10.4664 11.4293L8.41563 9.37849C8.29603 9.2495 8.23095 9.07922 8.23405 8.9033C8.23717 8.72681 8.30866 8.55842 8.43348 8.4336C8.5583 8.30879 8.72669 8.23729 8.90318 8.23417C9.0791 8.23107 9.24938 8.29615 9.37837 8.41575L11.4292 10.4665L11.4999 10.5373L11.5706 10.4665L13.6227 8.41446L13.6227 8.4145L13.6251 8.41192C13.6875 8.34499 13.7627 8.2913 13.8463 8.25407C13.9298 8.21683 14.02 8.19681 14.1115 8.1952C14.203 8.19358 14.2938 8.21041 14.3787 8.24467C14.4635 8.27894 14.5406 8.32994 14.6052 8.39463C14.6699 8.45932 14.7209 8.53637 14.7552 8.6212C14.7895 8.70603 14.8063 8.79689 14.8047 8.88836C14.8031 8.97983 14.783 9.07004 14.7458 9.15361C14.7086 9.23717 14.6549 9.31238 14.588 9.37475L14.5879 9.37471L14.5854 9.3772L12.5333 11.4293L12.4626 11.5L12.5333 11.5707L14.5841 13.6215C14.7037 13.7505 14.7688 13.9208 14.7657 14.0967C14.7626 14.2732 14.6911 14.4416 14.5663 14.5664C14.4415 14.6912 14.2731 14.7627 14.0966 14.7658C13.9206 14.7689 13.7504 14.7038 13.6214 14.5842L11.5706 12.5335L11.4999 12.4627L11.4292 12.5335L9.37708 14.5855L9.37704 14.5855L9.37463 14.5881C9.31226 14.655 9.23705 14.7087 9.15349 14.7459C9.06992 14.7832 8.97971 14.8032 8.88824 14.8048C8.79677 14.8064 8.70591 14.7896 8.62108 14.7553C8.53625 14.7211 8.4592 14.6701 8.39451 14.6054C8.32981 14.5407 8.27882 14.4636 8.24455 14.3788C8.21029 14.294 8.19346 14.2031 8.19508 14.1116C8.19669 14.0202 8.21671 13.93 8.25395 13.8464C8.29118 13.7628 8.34487 13.6876 8.4118 13.6252L8.41184 13.6253L8.41434 13.6228L10.4664 11.5707Z" fill="#302E43" stroke="white" stroke-width="0.2"/>
<path d="M0.402002 11.5C0.402002 5.37089 5.37077 0.402124 11.4999 0.402124C17.6291 0.402124 22.5978 5.37089 22.5978 11.5C22.5978 17.6292 17.6291 22.598 11.4999 22.598C5.37077 22.598 0.402002 17.6292 0.402002 11.5ZM4.61594 4.61606C2.79019 6.44181 1.7645 8.91805 1.7645 11.5C1.7645 14.082 2.79019 16.5583 4.61594 18.384C6.44168 20.2098 8.91792 21.2355 11.4999 21.2355C14.0819 21.2355 16.5582 20.2098 18.3839 18.384C20.2096 16.5583 21.2353 14.082 21.2353 11.5C21.2353 8.91805 20.2096 6.44181 18.3839 4.61606C16.5582 2.79032 14.0819 1.76462 11.4999 1.76462C8.91792 1.76462 6.44168 2.79032 4.61594 4.61606Z" fill="#302E43" stroke="white" stroke-width="0.2"/>
</svg>
