<svg width="40" height="40" viewBox="0 0 40 40" fill="none" xmlns="http://www.w3.org/2000/svg">
<path d="M9.5647 33.3333C8.67125 33.3333 7.88617 32.7407 7.64128 31.8815L4.03128 19.2148C3.66724 17.9375 4.62649 16.6667 5.95469 16.6667H11.8433C12.5137 16.6667 13.1395 16.3308 13.51 15.7721L18.349 8.47621C19.1421 7.28045 20.8991 7.28416 21.6871 8.48326L26.4725 15.7651C26.8424 16.3278 27.4705 16.6667 28.1439 16.6667H34.036C35.367 16.6667 36.3267 17.9426 35.9575 19.2214L32.3006 31.8881C32.0535 32.744 31.27 33.3333 30.3791 33.3333H9.5647ZM20.0001 26.6667C20.4467 26.6667 20.8362 26.5005 21.1684 26.1683C21.5006 25.8361 21.6667 25.4467 21.6667 25C21.6667 24.5533 21.5006 24.1639 21.1684 23.8317C20.8362 23.4994 20.4467 23.3333 20.0001 23.3333C19.5534 23.3333 19.1639 23.4994 18.8317 23.8317C18.4995 24.1639 18.3334 24.5533 18.3334 25C18.3334 25.4467 18.4995 25.8361 18.8317 26.1683C19.1639 26.5005 19.5534 26.6667 20.0001 26.6667ZM16.9695 13.5703C16.0977 14.9004 17.0519 16.6667 18.6422 16.6667H21.3449C22.9362 16.6667 23.8902 14.8985 23.0165 13.5685L21.6636 11.5091C20.8731 10.3058 19.1085 10.3068 18.3193 11.5109L16.9695 13.5703Z" fill="url(#paint0_linear_2407_6901)"/>
<defs>
<linearGradient id="paint0_linear_2407_6901" x1="20.0001" y1="20" x2="20.0001" y2="66.25" gradientUnits="userSpaceOnUse">
<stop stop-color="white"/>
<stop offset="1" stop-color="#C3BE65"/>
</linearGradient>
</defs>
</svg>
