<svg width="24" height="28" viewBox="0 0 24 28" fill="none" xmlns="http://www.w3.org/2000/svg">
<path d="M19.7466 3.96008C19.6399 3.96008 19.5333 3.93341 19.4399 3.88008C16.8799 2.56008 14.6666 2.00008 11.9999 2.00008C9.37327 2.00008 6.8666 2.62675 4.5866 3.88008C4.2666 4.05341 3.8666 3.93341 3.67993 3.61341C3.59678 3.45748 3.57813 3.27513 3.62799 3.10559C3.67786 2.93604 3.79226 2.79283 3.9466 2.70675C6.4266 1.33341 9.1466 0.666748 11.9999 0.666748C14.8533 0.666748 17.3333 1.29341 20.0533 2.66675C20.3866 2.86675 20.5066 3.26675 20.3333 3.58675C20.2819 3.6989 20.1991 3.79381 20.0951 3.86004C19.991 3.92628 19.87 3.96102 19.7466 3.96008ZM0.666599 10.9601C0.533265 10.9601 0.399932 10.9201 0.279932 10.8401C0.139101 10.7344 0.0440601 10.5788 0.0143079 10.4052C-0.0154442 10.2317 0.0223483 10.0533 0.119932 9.90675C1.43993 8.04008 3.11993 6.57341 5.11993 5.54675C9.33327 3.38675 14.6666 3.37341 18.8666 5.53341C20.8666 6.56008 22.5466 8.00008 23.8666 9.86675C24.0799 10.1601 23.9999 10.5867 23.7066 10.8001C23.3999 11.0134 22.9866 10.9467 22.7733 10.6667C21.6141 8.99951 20.0616 7.64393 18.2533 6.72008C14.4266 4.76008 9.53327 4.76008 5.71993 6.73342C3.9066 7.66675 2.3866 9.00008 1.1866 10.6667C1.07993 10.8667 0.879932 10.9601 0.666599 10.9601ZM8.99993 27.0534C8.8266 27.0534 8.6666 26.9867 8.53327 26.8534C7.37326 25.6934 6.7466 24.9467 5.85327 23.3334C4.93327 21.6934 4.45327 19.6934 4.45327 17.5467C4.45327 13.5867 7.83993 10.3601 11.9999 10.3601C16.1599 10.3601 19.5466 13.5867 19.5466 17.5467C19.5466 17.7236 19.4764 17.8931 19.3513 18.0182C19.2263 18.1432 19.0567 18.2134 18.8799 18.2134C18.7031 18.2134 18.5336 18.1432 18.4085 18.0182C18.2835 17.8931 18.2133 17.7236 18.2133 17.5467C18.2133 14.3201 15.4266 11.6934 11.9999 11.6934C8.57327 11.6934 5.7866 14.3201 5.7866 17.5467C5.7866 19.4667 6.21327 21.2401 7.0266 22.6667C7.87993 24.2134 8.4666 24.8667 9.49327 25.9067C9.7466 26.1734 9.7466 26.5867 9.49327 26.8534C9.33327 26.9867 9.17327 27.0534 8.99993 27.0534ZM18.5599 24.5868C16.9733 24.5868 15.5733 24.1867 14.4266 23.4001C12.4399 22.0534 11.2533 19.8667 11.2533 17.5467C11.2533 17.3699 11.3235 17.2004 11.4485 17.0753C11.5736 16.9503 11.7431 16.8801 11.9199 16.8801C12.0967 16.8801 12.2663 16.9503 12.3913 17.0753C12.5164 17.2004 12.5866 17.3699 12.5866 17.5467C12.5866 19.4267 13.5466 21.2001 15.1733 22.2934C16.1199 22.9334 17.2266 23.2401 18.5599 23.2401C18.8799 23.2401 19.4133 23.2001 19.9466 23.1067C20.3066 23.0401 20.6666 23.2801 20.7199 23.6534C20.7866 24.0001 20.5466 24.3601 20.1733 24.4267C19.4133 24.5734 18.7466 24.5868 18.5599 24.5868ZM15.8799 27.3334H15.7066C13.5866 26.7201 12.1999 25.9334 10.7466 24.5067C9.82461 23.5982 9.09367 22.5143 8.59678 21.3191C8.09989 20.1238 7.84709 18.8412 7.85327 17.5467C7.85327 15.3867 9.69326 13.6267 11.9599 13.6267C14.2266 13.6267 16.0666 15.3867 16.0666 17.5467C16.0666 18.9734 17.3333 20.1334 18.8399 20.1334C20.3733 20.1334 21.6133 18.9734 21.6133 17.5467C21.6133 12.5201 17.2799 8.44008 11.9466 8.44008C8.15993 8.44008 4.6666 10.5467 3.13327 13.8134C2.61327 14.8934 2.3466 16.1601 2.3466 17.5467C2.3466 18.5867 2.43993 20.2267 3.23993 22.3601C3.37327 22.7067 3.19993 23.0934 2.85327 23.2134C2.68868 23.2727 2.50746 23.2655 2.34811 23.1933C2.18876 23.1211 2.06385 22.9896 1.99993 22.8267C1.33327 21.0801 1.0266 19.3334 1.0266 17.5467C1.0266 15.9467 1.33327 14.4934 1.93327 13.2267C3.7066 9.50675 7.63993 7.09342 11.9466 7.09342C17.9999 7.09342 22.9466 11.7734 22.9466 17.5334C22.9466 19.6934 21.1066 21.4534 18.8399 21.4534C16.5733 21.4534 14.7333 19.6934 14.7333 17.5334C14.7333 16.1067 13.4933 14.9467 11.9599 14.9467C10.4266 14.9467 9.1866 16.1067 9.1866 17.5334C9.1866 19.8134 10.0666 21.9467 11.6799 23.5467C12.9466 24.8001 14.1599 25.4934 16.0399 26.0001C16.3999 26.1067 16.5999 26.4801 16.5066 26.8267C16.4399 27.1334 16.1599 27.3334 15.8799 27.3334Z" fill="white"/>
</svg>
