<svg width="40" height="40" viewBox="0 0 40 40" fill="none" xmlns="http://www.w3.org/2000/svg">
<g clip-path="url(#clip0_2407_6880)">
<path d="M30.4667 28.2817C30.23 28.2817 30.0322 28.2022 29.8733 28.0433C29.7144 27.8844 29.635 27.6861 29.635 27.4483V23.2817H25.4683C25.2306 23.2817 25.0322 23.2022 24.8733 23.0433C24.7144 22.8844 24.635 22.6861 24.635 22.4483C24.635 22.2106 24.7144 22.0122 24.8733 21.8533C25.0322 21.6944 25.2306 21.615 25.4683 21.615H29.635V17.4483C29.635 17.2117 29.7144 17.0133 29.8733 16.8533C30.0322 16.6933 30.2306 16.6139 30.4683 16.615C30.7061 16.6161 30.9039 16.6956 31.0617 16.8533C31.2194 17.0111 31.2994 17.2094 31.3017 17.4483V21.615H35.4683C35.705 21.615 35.9028 21.6944 36.0617 21.8533C36.2206 22.0122 36.3006 22.2106 36.3017 22.4483C36.3028 22.6861 36.2228 22.8844 36.0617 23.0433C35.9006 23.2022 35.7028 23.2817 35.4683 23.2817H31.3017V27.4483C31.3017 27.6861 31.2217 27.8844 31.0617 28.0433C30.9017 28.2022 30.7039 28.2817 30.4683 28.2817M18.4167 32.8933C18.1989 32.8933 17.9861 32.8617 17.7783 32.7983C17.5717 32.7339 17.3794 32.6128 17.2017 32.435C14.8472 30.2772 12.7989 28.3617 11.0567 26.6883C9.31445 25.015 7.88111 23.4833 6.75667 22.0933C5.63222 20.7033 4.79389 19.3978 4.24167 18.1767C3.68944 16.9556 3.41444 15.7261 3.41667 14.4883C3.41667 12.3683 4.13667 10.59 5.57667 9.15333C7.01667 7.71667 8.79667 6.99889 10.9167 7C12.3833 7 13.7583 7.37333 15.0417 8.12C16.325 8.86667 17.45 9.95556 18.4167 11.3867C19.3833 9.95556 20.5083 8.86667 21.7917 8.12C23.0761 7.37333 24.4511 7 25.9167 7C27.6244 7 29.1144 7.47889 30.3867 8.43667C31.6589 9.39445 32.5239 10.6267 32.9817 12.1333C33.095 12.4911 33.0194 12.8072 32.755 13.0817C32.4906 13.3561 32.1544 13.4656 31.7467 13.41C31.5078 13.3667 31.2739 13.3344 31.045 13.3133C30.8161 13.2922 30.5822 13.2817 30.3433 13.2817C27.8967 13.2817 25.7778 14.1689 23.9867 15.9433C22.1967 17.7178 21.3017 19.8861 21.3017 22.4483C21.3017 23.4017 21.4461 24.3189 21.735 25.2C22.025 26.0811 22.4444 26.8989 22.9933 27.6533C23.1922 27.9222 23.2811 28.2361 23.26 28.595C23.2389 28.9539 23.1056 29.2539 22.86 29.495L19.6317 32.445C19.4539 32.6228 19.2617 32.7417 19.055 32.8017C18.8483 32.8617 18.6356 32.8922 18.4167 32.8933Z" fill="url(#paint0_linear_2407_6880)"/>
</g>
<defs>
<linearGradient id="paint0_linear_2407_6880" x1="20.0833" y1="13.2817" x2="19.6508" y2="40.1567" gradientUnits="userSpaceOnUse">
<stop stop-color="white"/>
<stop offset="1" stop-color="#B0A051"/>
</linearGradient>
<clipPath id="clip0_2407_6880">
<rect width="40" height="40" fill="white"/>
</clipPath>
</defs>
</svg>
