<svg width="40" height="40" viewBox="0 0 40 40" fill="none" xmlns="http://www.w3.org/2000/svg">
<path d="M34.1666 28.3334H11.0266C10.2855 28.3334 9.65164 28.0695 9.12497 27.5417C8.5983 27.0139 8.33442 26.3811 8.3333 25.6434V9.36002C8.3333 9.06113 8.23719 8.81558 8.04497 8.62335C7.85275 8.43113 7.60719 8.33447 7.3083 8.33335H4.99997C4.7633 8.33335 4.56553 8.25335 4.40664 8.09335C4.24775 7.93335 4.16775 7.73502 4.16664 7.49835C4.16553 7.26169 4.24553 7.06391 4.40664 6.90502C4.56775 6.74613 4.76553 6.66669 4.99997 6.66669H7.3083C8.0483 6.66669 8.68164 6.93058 9.2083 7.45835C9.73497 7.98613 9.99886 8.61946 9.99997 9.35835V25.6417C9.99997 25.9406 10.0961 26.1861 10.2883 26.3784C10.4805 26.5706 10.7266 26.6667 11.0266 26.6667H34.1666C34.4033 26.6667 34.6011 26.7467 34.76 26.9067C34.9189 27.0667 34.9989 27.265 35 27.5017C35.0011 27.7384 34.9211 27.9361 34.76 28.095C34.5989 28.2539 34.4011 28.3334 34.1666 28.3334ZM10.7366 34.8084C10.0555 34.8084 9.47942 34.5728 9.0083 34.1017C8.53719 33.6306 8.30164 33.0539 8.30164 32.3717C8.30164 31.6895 8.53719 31.1134 9.0083 30.6434C9.47942 30.1734 10.0555 29.9378 10.7366 29.9367C11.4177 29.9356 11.9944 30.1711 12.4666 30.6434C12.9389 31.1156 13.1744 31.6917 13.1733 32.3717C13.1722 33.0517 12.9366 33.6284 12.4666 34.1017C11.9966 34.575 11.42 34.8106 10.7366 34.8084ZM14.295 23.7184C13.9139 23.7184 13.5944 23.5895 13.3366 23.3317C13.0789 23.0739 12.9494 22.7539 12.9483 22.3717V17.6284C12.9483 17.2472 13.0772 16.9278 13.335 16.67C13.5927 16.4122 13.9127 16.2828 14.295 16.2817H19.0383C19.4194 16.2817 19.7394 16.4106 19.9983 16.6684C20.2572 16.9261 20.3861 17.2461 20.385 17.6284V22.3717C20.385 22.7528 20.2561 23.0728 19.9983 23.3317C19.7405 23.5906 19.4205 23.7195 19.0383 23.7184H14.295ZM25.9616 23.7184C25.5805 23.7184 25.2611 23.5895 25.0033 23.3317C24.7455 23.0739 24.6161 22.7539 24.615 22.3717V17.6284C24.615 17.2472 24.7439 16.9278 25.0016 16.67C25.2594 16.4122 25.5794 16.2828 25.9616 16.2817H30.705C31.0861 16.2817 31.4061 16.4106 31.665 16.6684C31.9239 16.9261 32.0528 17.2461 32.0516 17.6284V22.3717C32.0516 22.7528 31.9228 23.0728 31.665 23.3317C31.4072 23.5906 31.0872 23.7195 30.705 23.7184H25.9616ZM32.5283 34.8084C31.8494 34.8084 31.2794 34.5728 30.8183 34.1017C30.3583 33.6306 30.1283 33.0539 30.1283 32.3717C30.1283 31.6895 30.3583 31.1134 30.8183 30.6434C31.2783 30.1734 31.8483 29.9378 32.5283 29.9367C33.2083 29.9356 33.7905 30.1711 34.275 30.6434C34.7594 31.1156 35.0011 31.6917 35 32.3717C34.9989 33.0517 34.7572 33.6284 34.275 34.1017C33.7928 34.575 33.2105 34.8106 32.5283 34.8084Z" fill="url(#paint0_linear_2407_6899)"/>
<defs>
<linearGradient id="paint0_linear_2407_6899" x1="20" y1="14.375" x2="20" y2="52.5001" gradientUnits="userSpaceOnUse">
<stop stop-color="white"/>
<stop offset="1" stop-color="#2F91CF"/>
</linearGradient>
</defs>
</svg>
