<svg width="30" height="30" viewBox="0 0 30 30" fill="none" xmlns="http://www.w3.org/2000/svg">
<path d="M15.9375 15C15.9375 15.1854 15.8825 15.3667 15.7795 15.5208C15.6765 15.675 15.5301 15.7952 15.3588 15.8661C15.1875 15.9371 14.999 15.9557 14.8171 15.9195C14.6352 15.8833 14.4682 15.794 14.3371 15.6629C14.206 15.5318 14.1167 15.3648 14.0805 15.1829C14.0443 15.001 14.0629 14.8125 14.1339 14.6412C14.2048 14.4699 14.325 14.3235 14.4791 14.2205C14.6333 14.1175 14.8146 14.0625 15 14.0625C15.2486 14.0625 15.4871 14.1613 15.6629 14.3371C15.8387 14.5129 15.9375 14.7514 15.9375 15ZM9.84374 14.0625C9.65832 14.0625 9.47707 14.1175 9.3229 14.2205C9.16872 14.3235 9.04856 14.4699 8.97761 14.6412C8.90665 14.8125 8.88808 15.001 8.92426 15.1829C8.96043 15.3648 9.04972 15.5318 9.18083 15.6629C9.31194 15.794 9.47899 15.8833 9.66085 15.9195C9.8427 15.9557 10.0312 15.9371 10.2025 15.8661C10.3738 15.7952 10.5202 15.675 10.6232 15.5208C10.7263 15.3667 10.7812 15.1854 10.7812 15C10.7812 14.7514 10.6825 14.5129 10.5067 14.3371C10.3308 14.1613 10.0924 14.0625 9.84374 14.0625ZM20.1562 14.0625C19.9708 14.0625 19.7896 14.1175 19.6354 14.2205C19.4812 14.3235 19.3611 14.4699 19.2901 14.6412C19.2191 14.8125 19.2006 15.001 19.2368 15.1829C19.2729 15.3648 19.3622 15.5318 19.4933 15.6629C19.6244 15.794 19.7915 15.8833 19.9733 15.9195C20.1552 15.9557 20.3437 15.9371 20.515 15.8661C20.6863 15.7952 20.8327 15.675 20.9357 15.5208C21.0388 15.3667 21.0937 15.1854 21.0937 15C21.0937 14.7514 20.995 14.5129 20.8192 14.3371C20.6433 14.1613 20.4049 14.0625 20.1562 14.0625ZM26.7187 7.5V22.5C26.7187 22.873 26.5706 23.2306 26.3069 23.4944C26.0431 23.7581 25.6855 23.9062 25.3125 23.9062H9.5496L5.59687 27.3199C5.34373 27.5372 5.02109 27.6565 4.68749 27.6562C4.48096 27.6554 4.27707 27.6098 4.08984 27.5227C3.84716 27.4105 3.64189 27.2308 3.49852 27.0052C3.35515 26.7795 3.27972 26.5173 3.28124 26.25V7.5C3.28124 7.12704 3.4294 6.76935 3.69312 6.50563C3.95685 6.24191 4.31453 6.09375 4.68749 6.09375H25.3125C25.6855 6.09375 26.0431 6.24191 26.3069 6.50563C26.5706 6.76935 26.7187 7.12704 26.7187 7.5ZM25.7812 7.5C25.7812 7.37568 25.7319 7.25645 25.6439 7.16854C25.556 7.08064 25.4368 7.03125 25.3125 7.03125H4.68749C4.56317 7.03125 4.44394 7.08064 4.35604 7.16854C4.26813 7.25645 4.21874 7.37568 4.21874 7.5V26.25C4.2186 26.3391 4.24388 26.4265 4.29162 26.5018C4.33936 26.5771 4.40758 26.6372 4.48827 26.6751C4.56897 26.713 4.6588 26.7271 4.74722 26.7157C4.83564 26.7043 4.91899 26.668 4.98749 26.6109L9.06796 23.0859C9.15281 23.0111 9.26186 22.9695 9.37499 22.9688H25.3125C25.4368 22.9688 25.556 22.9194 25.6439 22.8315C25.7319 22.7435 25.7812 22.6243 25.7812 22.5V7.5Z" fill="#302E43"/>
</svg>
