<svg width="30" height="30" viewBox="0 0 30 30" fill="none" xmlns="http://www.w3.org/2000/svg">
<path d="M6.25 23.4625V22.2125H8.27V12.3063C8.27 10.6729 8.78667 9.23667 9.82 7.9975C10.8533 6.75833 12.1633 5.98667 13.75 5.6825V3.75H16.25V5.6825C17.8367 5.9875 19.1467 6.75958 20.18 7.99875C21.2133 9.23792 21.73 10.6742 21.73 12.3075V22.2112H23.75V23.4612L6.25 23.4625ZM14.9963 26.7313C14.4396 26.7313 13.9646 26.5333 13.5713 26.1375C13.1779 25.7417 12.9813 25.2667 12.9813 24.7125H17.0188C17.0188 25.2708 16.8208 25.7467 16.425 26.14C16.0283 26.5333 15.5521 26.7313 14.9963 26.7313ZM9.52 22.2125H20.4813V12.3075C20.4813 10.7883 19.9475 9.495 18.88 8.4275C17.8125 7.36 16.5192 6.82667 15 6.8275C13.4808 6.82833 12.1875 7.36167 11.12 8.4275C10.0525 9.49333 9.51917 10.7867 9.52 12.3075V22.2125Z" fill="#302E43"/>
</svg>
