<svg width="40" height="40" viewBox="0 0 40 40" fill="none" xmlns="http://www.w3.org/2000/svg">
<path d="M6.66663 33.2567V6.06502C6.66663 5.91279 6.72885 5.81279 6.85329 5.76502C6.97774 5.71724 7.09829 5.73057 7.21496 5.80502L8.39163 6.69335C8.51496 6.77446 8.64496 6.81502 8.78163 6.81502C8.91829 6.81502 9.04885 6.77446 9.17329 6.69335L10.635 5.68002C10.7583 5.59891 10.8883 5.55835 11.025 5.55835C11.1616 5.55835 11.2922 5.59891 11.4166 5.68002L12.8783 6.69335C13.0016 6.77446 13.1316 6.81502 13.2683 6.81502C13.405 6.81502 13.5355 6.77446 13.66 6.69335L15.1216 5.68002C15.245 5.59891 15.3755 5.55835 15.5133 5.55835C15.6511 5.55835 15.7811 5.59891 15.9033 5.68002L17.365 6.69335C17.4894 6.77446 17.62 6.81502 17.7566 6.81502C17.8933 6.81502 18.0238 6.77446 18.1483 6.69335L19.61 5.68002C19.7333 5.59891 19.8633 5.55835 20 5.55835C20.1366 5.55835 20.2672 5.59891 20.3916 5.68002L21.8533 6.69335C21.9766 6.77446 22.1066 6.81502 22.2433 6.81502C22.38 6.81502 22.5105 6.77446 22.635 6.69335L24.0966 5.68002C24.22 5.59891 24.35 5.55835 24.4866 5.55835C24.6233 5.55835 24.7538 5.59891 24.8783 5.68002L26.34 6.69335C26.4644 6.77446 26.595 6.81502 26.7316 6.81502C26.8683 6.81502 26.9983 6.77446 27.1216 6.69335L28.5833 5.68002C28.7077 5.59891 28.8383 5.55835 28.975 5.55835C29.1116 5.55835 29.2416 5.59891 29.365 5.68002L30.8266 6.69335C30.9511 6.77446 31.0816 6.81502 31.2183 6.81502C31.355 6.81502 31.485 6.77446 31.6083 6.69335L32.785 5.80502C32.9027 5.73057 33.0238 5.71724 33.1483 5.76502C33.2727 5.81279 33.3344 5.91279 33.3333 6.06502V33.2567C33.3333 33.5389 33.215 33.7389 32.9783 33.8567C32.7416 33.9745 32.5055 33.9478 32.27 33.7767L31.61 33.3084C31.4855 33.2272 31.355 33.1867 31.2183 33.1867C31.0816 33.1867 30.9511 33.2272 30.8266 33.3084L29.365 34.32C29.2416 34.4022 29.1116 34.4434 28.975 34.4434C28.8383 34.4434 28.7077 34.4022 28.5833 34.32L27.1216 33.3084C26.9983 33.2272 26.8683 33.1867 26.7316 33.1867C26.595 33.1867 26.4644 33.2272 26.34 33.3084L24.8783 34.32C24.755 34.4022 24.6244 34.4434 24.4866 34.4434C24.3489 34.4434 24.2188 34.4022 24.0966 34.32L22.635 33.3084C22.5105 33.2272 22.38 33.1867 22.2433 33.1867C22.1066 33.1867 21.9766 33.2272 21.8533 33.3084L20.3916 34.32C20.2672 34.4022 20.1366 34.4434 20 34.4434C19.8633 34.4434 19.7327 34.4022 19.6083 34.32L18.1466 33.3084C18.0233 33.2272 17.8933 33.1867 17.7566 33.1867C17.62 33.1867 17.4894 33.2272 17.365 33.3084L15.9033 34.32C15.78 34.4022 15.65 34.4434 15.5133 34.4434C15.3766 34.4434 15.2461 34.4022 15.1216 34.32L13.66 33.3084C13.5355 33.2272 13.405 33.1867 13.2683 33.1867C13.1316 33.1867 13.0016 33.2272 12.8783 33.3084L11.4166 34.32C11.2933 34.4022 11.1633 34.4434 11.0266 34.4434C10.89 34.4434 10.7594 34.4022 10.635 34.32L9.17329 33.3084C9.04885 33.2272 8.91829 33.1867 8.78163 33.1867C8.64496 33.1867 8.51496 33.2272 8.39163 33.3084L7.73163 33.775C7.49607 33.9461 7.25996 33.9733 7.02329 33.8567C6.78663 33.74 6.66774 33.54 6.66663 33.2567ZM11.6666 26.4733H28.3333C28.5711 26.4733 28.7694 26.3939 28.9283 26.235C29.0872 26.0761 29.1666 25.8778 29.1666 25.64C29.1666 25.4022 29.0872 25.2045 28.9283 25.0467C28.7694 24.8889 28.5711 24.8089 28.3333 24.8067H11.6666C11.43 24.8067 11.2316 24.8867 11.0716 25.0467C10.9127 25.2056 10.8333 25.4039 10.8333 25.6417C10.8333 25.8783 10.9127 26.0761 11.0716 26.235C11.2305 26.3939 11.4288 26.4739 11.6666 26.475M11.6666 20.8333H28.3333C28.5711 20.8333 28.7694 20.7539 28.9283 20.595C29.0872 20.4361 29.1666 20.2378 29.1666 20C29.1666 19.7622 29.0872 19.5639 28.9283 19.405C28.7694 19.2461 28.5711 19.1667 28.3333 19.1667H11.6666C11.43 19.1667 11.2316 19.2461 11.0716 19.405C10.9116 19.5639 10.8322 19.7622 10.8333 20C10.8344 20.2378 10.9138 20.4361 11.0716 20.595C11.2294 20.7539 11.4277 20.8333 11.6666 20.8333ZM11.6666 15.1933H28.3333C28.5711 15.1933 28.7694 15.1133 28.9283 14.9533C29.0872 14.7945 29.1666 14.5967 29.1666 14.36C29.1666 14.1222 29.0872 13.9239 28.9283 13.765C28.7694 13.6061 28.5711 13.5267 28.3333 13.5267H11.6666C11.43 13.5267 11.2316 13.6061 11.0716 13.765C10.9116 13.9239 10.8322 14.1222 10.8333 14.36C10.8344 14.5978 10.9138 14.7956 11.0716 14.9533C11.2316 15.1133 11.43 15.1933 11.6666 15.1933Z" fill="url(#paint0_linear_2407_6878)"/>
<defs>
<linearGradient id="paint0_linear_2407_6878" x1="20" y1="20" x2="20" y2="48" gradientUnits="userSpaceOnUse">
<stop stop-color="white"/>
<stop offset="1" stop-color="#FFCD5E"/>
</linearGradient>
</defs>
</svg>
