<svg width="40" height="40" viewBox="0 0 40 40" fill="none" xmlns="http://www.w3.org/2000/svg">
<path d="M20 25C20.7033 25 21.2956 24.7589 21.7767 24.2767C22.2589 23.7956 22.5 23.2034 22.5 22.5C22.5 21.7967 22.2589 21.2045 21.7767 20.7234C21.2944 20.2422 20.7022 20.0011 20 20C19.2978 19.9989 18.7056 20.24 18.2233 20.7234C17.7411 21.2045 17.5 21.7967 17.5 22.5C17.5 23.2034 17.7411 23.7956 18.2233 24.2767C18.7056 24.7578 19.2978 24.9989 20 25ZM8 33.3334C6.34315 33.3334 5 31.9902 5 30.3334V14.6667C5 13.0098 6.34315 11.6667 8 11.6667H12.5C13.8807 11.6667 15 10.5474 15 9.16669C15 7.78598 16.1193 6.66669 17.5 6.66669H22.5C23.8807 6.66669 25 7.78598 25 9.16669C25 10.5474 26.1193 11.6667 27.5 11.6667H32C33.6569 11.6667 35 13.0098 35 14.6667V30.3334C35 31.9902 33.6569 33.3334 32 33.3334H8ZM6.66667 28.6667C6.66667 30.3235 8.00981 31.6667 9.66667 31.6667H30.3333C31.9902 31.6667 33.3333 30.3235 33.3333 28.6667V16.3334C33.3333 14.6765 31.9902 13.3334 30.3333 13.3334H9.66666C8.00981 13.3334 6.66667 14.6765 6.66667 16.3334V28.6667ZM16.6667 10C16.6667 10.9205 17.4129 11.6667 18.3333 11.6667H21.6667C22.5871 11.6667 23.3333 10.9205 23.3333 10C23.3333 9.07955 22.5871 8.33335 21.6667 8.33335H18.3333C17.4129 8.33335 16.6667 9.07955 16.6667 10Z" fill="url(#paint0_linear_2407_6897)"/>
<defs>
<linearGradient id="paint0_linear_2407_6897" x1="20" y1="13.125" x2="20" y2="50" gradientUnits="userSpaceOnUse">
<stop stop-color="white"/>
<stop offset="1" stop-color="#FA641B"/>
</linearGradient>
</defs>
</svg>
