<svg width="40" height="40" viewBox="0 0 40 40" fill="none" xmlns="http://www.w3.org/2000/svg">
<path d="M30 31.6667H25.8333C25.5966 31.6667 25.3988 31.5867 25.24 31.4267C25.0811 31.2667 25.0011 31.0683 25 30.8317C24.9988 30.595 25.0788 30.3972 25.24 30.2383C25.4011 30.0794 25.5988 30 25.8333 30H30V25.8333C30 25.5967 30.08 25.3989 30.24 25.24C30.4 25.0811 30.5983 25.0011 30.8349 25C31.0716 24.9989 31.2694 25.0789 31.4283 25.24C31.5872 25.4011 31.6666 25.5989 31.6666 25.8333V30H35.8333C36.07 30 36.2677 30.08 36.4266 30.24C36.5855 30.4 36.6655 30.5983 36.6666 30.835C36.6677 31.0717 36.5877 31.2694 36.4266 31.4283C36.2655 31.5872 36.0677 31.6667 35.8333 31.6667H31.6666V35.8333C31.6666 36.07 31.5866 36.2678 31.4266 36.4267C31.2666 36.5856 31.0683 36.6656 30.8316 36.6667C30.595 36.6678 30.3972 36.5878 30.2383 36.4267C30.0794 36.2656 30 36.0678 30 35.8333V31.6667ZM6.73162 32.5C6.3494 32.5 6.0294 32.3711 5.77162 32.1133C5.51384 31.8556 5.38495 31.5356 5.38495 31.1533V22.5H4.64328C4.22328 22.5 3.87328 22.3306 3.59328 21.9917C3.31328 21.6528 3.22884 21.2728 3.33995 20.8517L5.00662 13.545C5.0744 13.2406 5.2344 12.9906 5.48662 12.795C5.73773 12.5983 6.02328 12.5 6.34328 12.5H26.99C27.31 12.5 27.5955 12.5978 27.8466 12.7933C28.0988 12.99 28.2588 13.2406 28.3266 13.545L29.9933 20.8517C30.1044 21.2739 30.02 21.6539 29.74 21.9917C29.46 22.3294 29.11 22.4989 28.69 22.5H27.9483V27.1167C27.9483 27.3522 27.8683 27.55 27.7083 27.71C27.5483 27.87 27.3505 27.9494 27.115 27.9483C26.8794 27.9472 26.6816 27.8678 26.5216 27.71C26.3616 27.5522 26.2816 27.3539 26.2816 27.115V22.5H18.7183V31.1533C18.7183 31.5356 18.5894 31.8556 18.3316 32.1133C18.0738 32.3711 17.7538 32.5 17.3716 32.5H6.73162ZM7.05162 30.8333H17.0516V22.5H7.05162V30.8333ZM6.08995 9.16667C5.85328 9.16667 5.65495 9.08667 5.49495 8.92667C5.33495 8.76667 5.25551 8.56833 5.25662 8.33167C5.25773 8.095 5.33717 7.89722 5.49495 7.73833C5.65273 7.57944 5.85106 7.5 6.08995 7.5H27.2433C27.48 7.5 27.6777 7.58 27.8366 7.74C27.9955 7.9 28.0755 8.09833 28.0766 8.335C28.0777 8.57167 27.9977 8.76944 27.8366 8.92833C27.6755 9.08722 27.4777 9.16667 27.2433 9.16667H6.08995Z" fill="url(#paint0_linear_2407_6907)"/>
<defs>
<linearGradient id="paint0_linear_2407_6907" x1="19.9796" y1="7.5" x2="20" y2="48" gradientUnits="userSpaceOnUse">
<stop stop-color="white"/>
<stop offset="1" stop-color="#B1A153"/>
</linearGradient>
</defs>
</svg>
