<svg width="58" height="58" viewBox="0 0 58 58" fill="none" xmlns="http://www.w3.org/2000/svg">
<path d="M4 4H29C42.8071 4 54 15.1929 54 29C54 42.8071 42.8071 54 29 54C15.1929 54 4 42.8071 4 29V4Z" fill="#D1FADF"/>
<path d="M4 4H29C42.8071 4 54 15.1929 54 29C54 42.8071 42.8071 54 29 54C15.1929 54 4 42.8071 4 29V4Z" stroke="#ECFDF3" stroke-width="8"/>
<path d="M24.0403 29L27.3468 32.3065L33.9597 25.6936M40.0215 29C40.0215 35.087 35.087 40.0215 29 40.0215C22.913 40.0215 17.9785 35.087 17.9785 29C17.9785 22.913 22.913 17.9785 29 17.9785C35.087 17.9785 40.0215 22.913 40.0215 29Z" stroke="#039855" stroke-width="2" stroke-linecap="round" stroke-linejoin="round"/>
</svg>
