<svg width="30" height="30" viewBox="0 0 30 30" fill="none" xmlns="http://www.w3.org/2000/svg">
<path d="M10.0962 25H5V15.0038C5 13.6154 5.26083 12.315 5.7825 11.1025C6.30417 9.89 7.01833 8.83084 7.925 7.925C8.83167 7.01917 9.89 6.305 11.1 5.7825C12.31 5.26 13.61 4.99917 15 5C16.39 5.00084 17.69 5.26167 18.9 5.7825C20.11 6.30334 21.1683 7.0175 22.075 7.925C22.9817 8.8325 23.6954 9.89167 24.2162 11.1025C24.7371 12.3133 24.9979 13.6138 24.9988 15.0038V25H19.9025V17.3075H23.75V15C23.75 12.5625 22.9012 10.495 21.2037 8.7975C19.5062 7.1 17.4383 6.25084 15 6.25C12.5617 6.24917 10.4942 7.09834 8.7975 8.7975C7.10083 10.4967 6.25167 12.5642 6.25 15V17.3075H10.0962V25ZM8.84625 18.5575H6.25V23.75H8.84625V18.5575ZM21.1538 18.5575V23.75H23.75V18.5575H21.1538Z" fill="#302E43"/>
</svg>
