<svg width="40" height="40" viewBox="0 0 40 40" fill="none" xmlns="http://www.w3.org/2000/svg">
<path d="M14.12 33.6064L7 26.5281L13.37 20.2247V14.0347L26.6133 27.2681H20.4567L14.12 33.6064ZM32.045 26.2914L30.7833 25.0614C31.8411 22.8469 32.1772 20.5436 31.7917 18.1514C31.405 15.7603 30.3489 13.7014 28.6233 11.9747C26.8967 10.2481 24.8372 9.19195 22.445 8.80639C20.0528 8.42083 17.75 8.75695 15.5367 9.81472L14.305 8.55139C16.8928 7.21806 19.6111 6.74417 22.46 7.12972C25.31 7.51528 27.7606 8.73361 29.8117 10.7847C31.8628 12.8358 33.0811 15.2858 33.4667 18.1347C33.8522 20.9836 33.3783 23.7025 32.045 26.2914ZM27.705 21.9514L26.2833 20.5281C26.3256 19.6836 26.2161 18.8714 25.955 18.0914C25.6928 17.3103 25.2617 16.6192 24.6617 16.0181C24.055 15.4114 23.3606 14.9703 22.5783 14.6947C21.7961 14.4192 20.9806 14.3242 20.1317 14.4097L18.6767 12.9231C19.9822 12.6431 21.27 12.6581 22.54 12.9681C23.8089 13.2769 24.9089 13.8975 25.84 14.8297C26.7711 15.7619 27.3906 16.8608 27.6983 18.1264C28.0061 19.3919 28.0072 20.6669 27.705 21.9514Z" fill="url(#paint0_linear_2407_6876)"/>
<defs>
<linearGradient id="paint0_linear_2407_6876" x1="20.725" y1="19.9131" x2="20.725" y2="42.9131" gradientUnits="userSpaceOnUse">
<stop stop-color="white"/>
<stop offset="1" stop-color="#499CCF"/>
</linearGradient>
</defs>
</svg>
