<svg width="40" height="40" viewBox="0 0 40 40" fill="none" xmlns="http://www.w3.org/2000/svg">
<path d="M10.8333 16.6666C10.8333 17.1269 11.2064 17.5 11.6667 17.5H18.7833C19.2436 17.5 19.6167 17.1269 19.6167 16.6666C19.6167 16.2064 19.2436 15.8333 18.7833 15.8333H11.6667C11.2064 15.8333 10.8333 16.2064 10.8333 16.6666ZM7 31.6666C5.89543 31.6666 5 30.7712 5 29.6666V10.3333C5 9.22874 5.89543 8.33331 7 8.33331H33.8464C34.4449 8.33331 34.93 8.81844 34.93 9.41687V10.0467C34.93 10.4496 34.5433 10.7402 34.1433 10.6916C33.8767 10.6583 33.6067 10.6416 33.3333 10.6416C31.3267 10.6416 29.6283 11.3361 28.2383 12.725C26.8483 14.1139 26.1539 15.8122 26.155 17.82C26.155 18.31 26.1994 18.7778 26.2883 19.2233C26.4151 19.8589 25.9641 20.5133 25.3159 20.5133H21.1217C20.5731 20.5133 20.1283 20.958 20.1283 21.5066C20.1283 22.0552 19.6836 22.5 19.135 22.5H11.6667C11.2064 22.5 10.8333 22.8731 10.8333 23.3333C10.8333 23.7935 11.2064 24.1666 11.6667 24.1666H19.1145C19.6744 24.1666 20.1283 24.6206 20.1283 25.1805C20.1283 25.5095 19.9656 25.8143 19.711 26.0225C18.9421 26.6512 18.3368 27.4059 17.895 28.2866C17.6691 28.7365 17.4923 29.2036 17.3645 29.6879C17.0827 30.7559 16.2196 31.6666 15.115 31.6666H7ZM24.295 33.7166C24.895 33.7166 25.4083 33.5039 25.835 33.0783C26.2617 32.6528 26.475 32.1394 26.475 31.5383C26.475 30.9372 26.2617 30.4239 25.835 29.9983C25.4083 29.5728 24.895 29.36 24.295 29.36C23.695 29.36 23.1817 29.5728 22.755 29.9983C22.3283 30.4239 22.115 30.9372 22.115 31.5383C22.115 32.1394 22.3283 32.6528 22.755 33.0783C23.1806 33.505 23.6939 33.7183 24.295 33.7183M33.3333 20C33.9333 20 34.4467 19.7866 34.8733 19.36C35.3 18.9344 35.5133 18.4211 35.5133 17.82C35.5133 17.22 35.3 16.7066 34.8733 16.28C34.4478 15.8544 33.9344 15.6416 33.3333 15.6416C32.7322 15.6416 32.2189 15.8544 31.7933 16.28C31.3667 16.7066 31.1533 17.22 31.1533 17.82C31.1533 18.42 31.3667 18.9333 31.7933 19.36C32.22 19.7866 32.7333 20 33.3333 20ZM24.295 35.3833C23.2272 35.3833 22.3189 35.01 21.57 34.2633C20.8222 33.5144 20.4483 32.6061 20.4483 31.5383C20.4483 30.605 20.7344 29.7933 21.3067 29.1033C21.5157 28.8503 21.7445 28.6314 21.993 28.4464C22.751 27.8823 23.4617 27.1157 23.4617 26.1709V25.8466C23.4617 24.7421 24.3571 23.8466 25.4617 23.8466H31.2406C31.9361 23.8466 32.5 23.2828 32.5 22.5872C32.5 21.9923 32.0693 21.5008 31.54 21.2292C31.088 20.9973 30.6897 20.6731 30.345 20.2566C29.7728 19.5666 29.4867 18.7544 29.4867 17.82C29.4867 16.7522 29.8611 15.8444 30.61 15.0966C31.3578 14.3478 32.2656 13.9733 33.3333 13.9733C34.4011 13.9733 35.3094 14.3478 36.0583 15.0966C36.8072 15.8455 37.1811 16.7533 37.18 17.82C37.18 18.7533 36.8939 19.5655 36.3217 20.2566C36.1121 20.5098 35.8827 20.729 35.6335 20.9141C34.8758 21.477 34.1667 22.2431 34.1667 23.187V23.5133C34.1667 24.6179 33.2712 25.5133 32.1667 25.5133H26.3875C25.6921 25.5133 25.1283 26.0771 25.1283 26.7725C25.1283 27.3668 25.5581 27.858 26.0868 28.1294C26.5394 28.3617 26.9382 28.6864 27.2833 29.1033C27.8556 29.7922 28.1417 30.6039 28.1417 31.5383C28.1417 32.6072 27.7678 33.5155 27.02 34.2633C26.2722 35.0111 25.3639 35.385 24.295 35.385" fill="url(#paint0_linear_2407_6905)"/>
<defs>
<linearGradient id="paint0_linear_2407_6905" x1="21.09" y1="8.33331" x2="21.09" y2="35.385" gradientUnits="userSpaceOnUse">
<stop stop-color="white"/>
<stop offset="1" stop-color="#87C7F0"/>
</linearGradient>
</defs>
</svg>
