<svg width="18" height="17" viewBox="0 0 18 17" fill="none" xmlns="http://www.w3.org/2000/svg">
<path d="M1.24904 13.7917C0.94279 13.7917 0.685845 13.6879 0.478206 13.4803C0.270567 13.2727 0.166748 13.0157 0.166748 12.7095V12.0772C0.166748 11.6466 0.291748 11.2442 0.541748 10.8699C0.792443 10.4949 1.12925 10.2042 1.55216 9.998C2.5355 9.52578 3.51953 9.1723 4.50425 8.93758C5.48758 8.70147 6.4723 8.58342 7.45842 8.58342C7.76814 8.58342 8.07474 8.59765 8.37821 8.62612C8.68099 8.65529 8.98758 8.69383 9.298 8.74175C9.44869 8.7723 9.56675 8.83272 9.65217 8.923C9.73758 9.01328 9.78758 9.13376 9.80217 9.28446C9.87717 9.94001 10.0737 10.5647 10.3917 11.1584C10.7098 11.7522 11.1254 12.2605 11.6386 12.6834C11.6664 12.7042 11.6886 12.7296 11.7053 12.7595C11.7213 12.7893 11.7292 12.8223 11.7292 12.8584V12.9907C11.7292 13.206 11.6494 13.3935 11.4897 13.5532C11.3299 13.7129 11.1424 13.7924 10.9272 13.7917H1.24904ZM7.45842 6.2605C6.59314 6.2605 5.85598 5.95564 5.24696 5.34592C4.63793 4.73758 4.33342 4.00078 4.33342 3.1355C4.33342 2.27022 4.63793 1.53307 5.24696 0.92404C5.85598 0.315012 6.59314 0.010498 7.45842 0.010498C8.32369 0.010498 9.06085 0.315012 9.66987 0.92404C10.2789 1.53307 10.5834 2.27022 10.5834 3.1355C10.5834 4.00078 10.2789 4.73793 9.66987 5.34696C9.06085 5.95598 8.32369 6.2605 7.45842 6.2605ZM15.0709 9.04487C15.2862 9.04487 15.4733 8.96189 15.6324 8.79592C15.7921 8.62925 15.872 8.43828 15.872 8.223C15.872 8.00842 15.7921 7.82161 15.6324 7.66258C15.4727 7.50355 15.2852 7.42369 15.0699 7.423C14.8546 7.4223 14.6643 7.50217 14.499 7.66258C14.3338 7.823 14.2504 8.01015 14.249 8.22404C14.2477 8.43793 14.331 8.62855 14.499 8.79592C14.6671 8.96328 14.8577 9.04557 15.0709 9.04487ZM15.1667 15.9928L14.3855 15.1907C14.3647 15.1699 14.3195 15.0751 14.2501 14.9063V11.3334C13.6598 11.1612 13.1782 10.8279 12.8053 10.3334C12.4324 9.84036 12.2459 9.27751 12.2459 8.64487C12.2459 7.86501 12.5216 7.19939 13.073 6.648C13.6244 6.09592 14.2904 5.81987 15.0709 5.81987C15.8515 5.81987 16.5136 6.09557 17.0574 6.64696C17.6011 7.19835 17.8737 7.86432 17.8751 8.64487C17.8751 9.25251 17.707 9.78654 17.3709 10.247C17.0355 10.7074 16.6025 11.0414 16.072 11.249L16.7699 11.9459C16.8602 12.0362 16.9053 12.1376 16.9053 12.2501C16.9053 12.3626 16.8602 12.4643 16.7699 12.5553L16.1563 13.1678C16.0661 13.2581 16.0209 13.3563 16.0209 13.4626C16.0209 13.5688 16.0661 13.6671 16.1563 13.7574L16.7897 14.3699C16.8799 14.4602 16.9251 14.5584 16.9251 14.6647C16.9251 14.7709 16.8799 14.8688 16.7897 14.9584L15.7563 15.9928C15.6654 16.0831 15.5671 16.1282 15.4615 16.1282C15.356 16.1282 15.2577 16.0831 15.1667 15.9928Z" fill="#02629F"/>
</svg>
