<svg width="40" height="40" viewBox="0 0 40 40" fill="none" xmlns="http://www.w3.org/2000/svg">
<path d="M27.5967 33.5583L21.6667 30.1116V23.2616L27.5967 19.8166L33.525 23.2633V30.1016L27.5967 33.5583ZM5 31.025V28.2833C5 27.5166 5.19333 26.8533 5.58 26.2933C5.96667 25.7333 6.51278 25.2878 7.21833 24.9566C8.57056 24.2989 9.965 23.7572 11.4017 23.3316C12.8372 22.9072 14.5922 22.695 16.6667 22.695H17.0583C17.1817 22.695 17.3056 22.7011 17.43 22.7133C16.9444 23.9444 16.7333 25.3589 16.7967 26.9566C16.8622 28.5555 17.2144 29.9128 17.8533 31.0283L5 31.025ZM16.6667 18.975C15.2822 18.975 14.1028 18.4878 13.1283 17.5133C12.1539 16.5389 11.6667 15.3594 11.6667 13.975C11.6667 12.5905 12.1539 11.4111 13.1283 10.4366C14.1028 9.4622 15.2822 8.97498 16.6667 8.97498C18.0511 8.97498 19.2306 9.4622 20.205 10.4366C21.1794 11.4111 21.6667 12.5905 21.6667 13.975C21.6667 15.3594 21.1794 16.5389 20.205 17.5133C19.2306 18.4878 18.0511 18.975 16.6667 18.975ZM23.9033 23.5966L27.5967 25.7283L31.2883 23.595L27.5967 21.475L23.9033 23.5966ZM28.3333 31.43L32.05 29.295V24.745L28.3333 26.9833V31.43ZM23.14 29.295L26.8583 31.4716V27.0266L23.1417 24.8183L23.14 29.295Z" fill="url(#paint0_linear_2407_6912)"/>
<defs>
<linearGradient id="paint0_linear_2407_6912" x1="19" y1="21" x2="19" y2="53.5" gradientUnits="userSpaceOnUse">
<stop stop-color="white"/>
<stop offset="1" stop-color="#E88150"/>
</linearGradient>
</defs>
</svg>
