<svg width="40" height="40" viewBox="0 0 40 40" fill="none" xmlns="http://www.w3.org/2000/svg">
<path d="M5.83333 36.05C5.59667 36.05 5.39889 35.9706 5.24 35.8117C5.08 35.6517 5 35.4533 5 35.2167C5 34.98 5.08 34.7822 5.24 34.6233C5.4 34.4644 5.59778 34.385 5.83333 34.385H34.1667C34.4033 34.385 34.6011 34.465 34.76 34.625C34.9189 34.785 34.9989 34.9828 35 35.2183C35.0011 35.4539 34.9211 35.6517 34.76 35.8117C34.5989 35.9717 34.4011 36.0517 34.1667 36.0517L5.83333 36.05ZM9.68 32.3333C9.29889 32.3333 8.97889 32.2044 8.72 31.9467C8.46111 31.6889 8.33222 31.3689 8.33333 30.9867V24.5133C7.37444 22.6067 6.65 20.7706 6.16 19.005C5.67111 17.2383 5.42667 15.5661 5.42667 13.9883C5.42667 12.6772 5.59333 11.3144 5.92667 9.9C6.26222 8.48556 6.775 6.84778 7.465 4.98667C7.55833 4.70222 7.71611 4.46667 7.93833 4.28C8.16056 4.09333 8.42778 4 8.74 4C9.11 4 9.41889 4.14778 9.66667 4.44333C9.91445 4.73778 10.0144 5.07389 9.96667 5.45167L9.54167 8.89167C9.375 10.3528 9.55167 11.7872 10.0717 13.195C10.5917 14.6028 11.3456 15.86 12.3333 16.9667C13.3211 18.0733 14.4806 18.9667 15.8117 19.6467C17.1428 20.3267 18.5389 20.6667 20 20.6667C21.7311 20.6667 23.3033 20.7867 24.7167 21.0267C26.13 21.2678 27.3333 21.6222 28.3267 22.09C29.3844 22.6011 30.2056 23.2589 30.79 24.0633C31.3744 24.8678 31.6667 25.8744 31.6667 27.0833V30.9867C31.6667 31.3689 31.5378 31.6889 31.28 31.9467C31.0222 32.2044 30.7022 32.3333 30.32 32.3333H15.9V31.6567C15.9 30.5622 16.2806 29.6322 17.0417 28.8667C17.8039 28.1 18.7478 27.7167 19.8733 27.7167H24.6817C24.9172 27.7167 25.115 27.6372 25.275 27.4783C25.435 27.3183 25.515 27.12 25.515 26.8833C25.515 26.6467 25.435 26.4489 25.275 26.29C25.115 26.1311 24.9172 26.0517 24.6817 26.0517H19.8733C18.3111 26.0517 16.9806 26.595 15.8817 27.6817C14.7817 28.7706 14.2317 30.0956 14.2317 31.6567V32.3333H9.68ZM20 18.2317C18.6256 18.2317 17.4483 17.7417 16.4683 16.7617C15.4883 15.7817 14.9989 14.6056 15 13.2333C15.0011 11.8611 15.4906 10.6833 16.4683 9.7C17.4461 8.71667 18.6233 8.22778 20 8.23333C21.3767 8.23889 22.5539 8.72778 23.5317 9.7C24.5094 10.6722 24.9989 11.85 25 13.2333C25.0011 14.6167 24.5117 15.7933 23.5317 16.7633C22.5517 17.7333 21.3744 18.2233 20 18.2333" fill="url(#paint0_linear_2407_6909)"/>
<defs>
<linearGradient id="paint0_linear_2407_6909" x1="20" y1="19.6667" x2="20" y2="56.6667" gradientUnits="userSpaceOnUse">
<stop stop-color="white"/>
<stop offset="1" stop-color="#8ED3FF"/>
</linearGradient>
</defs>
</svg>
